<?xml version="1.0" standalone="no"?>
<!DOCTYPE svg PUBLIC "-//W3C//DTD SVG 20010904//EN"
 "http://www.w3.org/TR/2001/REC-SVG-20010904/DTD/svg10.dtd">
<svg version="1.0" xmlns="http://www.w3.org/2000/svg"
 width="1000.000000pt" height="1000.000000pt" viewBox="0 0 1000.000000 1000.000000"
 preserveAspectRatio="xMidYMid meet">
<metadata>
Created by potrace 1.11, written by Peter Selinger 2001-2013
</metadata>
<g transform="translate(0.000000,1000.000000) scale(0.100000,-0.100000)"
fill="#000000" stroke="none">
<path d="M1244 9470 c-124 -18 -225 -72 -316 -168 -69 -74 -108 -143 -133
-238 -13 -51 -15 -527 -15 -4064 0 -3537 2 -4013 15 -4064 25 -95 64 -164 133
-238 71 -75 152 -126 247 -155 58 -17 207 -18 3885 -18 3685 0 3827 1 3885 18
190 59 331 202 380 387 22 83 22 8057 0 8140 -48 182 -185 323 -375 387 -53
17 -190 18 -3855 19 -2090 1 -3823 -2 -3851 -6z m7006 -2430 l0 -1340 -612 0
c-430 0 -5479 26 -5750 30 -17 0 -18 70 -18 1325 l0 1325 3190 0 3190 0 0
-1340z m-3300 -2420 c1361 -6 2661 -13 2888 -16 l412 -6 0 -1489 0 -1489
-3190 0 -3190 0 0 1510 0 1510 303 -5 c166 -3 1416 -10 2777 -15z"/>
</g>
</svg>
